<?xml version="1.0" encoding="UTF-8" standalone="no"?>
<!-- Created with Inkscape (http://www.inkscape.org/) -->

<svg
   xmlns:dc="http://purl.org/dc/elements/1.1/"
   xmlns:cc="http://creativecommons.org/ns#"
   xmlns:rdf="http://www.w3.org/1999/02/22-rdf-syntax-ns#"
   xmlns:svg="http://www.w3.org/2000/svg"
   xmlns="http://www.w3.org/2000/svg"
   xmlns:sodipodi="http://sodipodi.sourceforge.net/DTD/sodipodi-0.dtd"
   xmlns:inkscape="http://www.inkscape.org/namespaces/inkscape"
   width="1052.3622"
   height="744.09448"
   id="svg2"
   version="1.1"
   inkscape:version="0.91 r13725"
   sodipodi:docname="background.svg">
  <defs
     id="defs4" />
  <sodipodi:namedview
     id="base"
     pagecolor="#ffffff"
     bordercolor="#666666"
     borderopacity="1.0"
     inkscape:pageopacity="0.0"
     inkscape:pageshadow="2"
     inkscape:zoom="1.3426936"
     inkscape:cx="526.18109"
     inkscape:cy="29.657285"
     inkscape:document-units="px"
     inkscape:current-layer="layer1"
     showgrid="true"
     inkscape:window-width="1920"
     inkscape:window-height="1016"
     inkscape:window-x="0"
     inkscape:window-y="27"
     inkscape:window-maximized="1"
     inkscape:snap-global="false"
     showguides="true"
     inkscape:guide-bbox="true">
    <inkscape:grid
       type="xygrid"
       id="grid2990" />
    <sodipodi:guide
       position="954.9477,90.156114"
       orientation="0,1"
       id="guide4316" />
  </sodipodi:namedview>
  <metadata
     id="metadata7">
    <rdf:RDF>
      <cc:Work
         rdf:about="">
        <dc:format>image/svg+xml</dc:format>
        <dc:type
           rdf:resource="http://purl.org/dc/dcmitype/StillImage" />
        <dc:title></dc:title>
      </cc:Work>
    </rdf:RDF>
  </metadata>
  <g
     inkscape:label="Layer 1"
     inkscape:groupmode="layer"
     id="layer1"
     transform="translate(0,-308.2677)">
    <path
       style="fill:#ff6600"
       inkscape:connector-curvature="0"
       d="m 1052.1876,1052.223 -90.06038,0 0,-90.06051 90.06038,0 z"
       id="background" />
    <path
       style="fill:#ffffff"
       inkscape:connector-curvature="0"
       d="m 975.35182,1045.1708 c -3.1715,0 -6.03262,-2.0194 -6.03262,-6.4323 0,-4.4127 2.86112,-6.4321 6.03262,-6.4321 3.17148,0 6.02834,2.0194 6.02834,6.4321 0,4.4129 -2.85686,6.4323 -6.02834,6.4323 m 0,-10.1521 c -2.39774,0 -2.83565,2.1596 -2.83565,3.7198 0,1.5602 0.43791,3.7242 2.83565,3.7242 2.39772,0 2.83562,-2.164 2.83562,-3.7242 0,-1.5602 -0.4379,-3.7198 -2.83562,-3.7198"
       id="letter_o" />
    <path
       style="fill:#ffffff"
       inkscape:connector-curvature="0"
       d="m 983.58065,1032.6277 3.05246,0 0,1.4328 c 0.58242,-0.7739 2.01512,-1.6836 3.35854,-1.6836 0.12752,0 0.28485,0 0.41664,0.018 l 0,3.0142 -0.15732,0 c -1.39444,0 -2.92065,0.2169 -3.41381,1.301 l 0,8.1071 -3.25651,0 0,-12.1885 z"
       id="letter_r" />
    <path
       style="fill:#ffffff"
       inkscape:connector-curvature="0"
       d="m 998.93054,1043.7552 c -1.24139,0.8162 -2.58481,1.2116 -4.03023,1.2116 -2.27446,0 -3.62213,-1.5136 -3.62213,-3.5457 0,-2.7292 2.50828,-4.1704 7.67789,-4.7528 l 0,-0.6803 c 0,-0.8843 -0.67171,-1.4028 -1.9131,-1.4028 -1.24139,0 -2.24895,0.493 -2.97594,1.4028 l -2.16391,-1.2329 c 1.13511,-1.5899 2.86537,-2.3849 5.19084,-2.3849 3.17994,0 4.96554,1.3774 4.96554,3.6178 0,0 0,8.813 0,8.8342 l -2.8441,0 z m -4.49364,-2.5678 c 0,0.8204 0.51443,1.5857 1.44546,1.5857 1.00755,0 1.98962,-0.4165 2.97166,-1.2838 l 0,-2.8867 c -2.99719,0.3699 -4.41712,1.1435 -4.41712,2.5848"
       id="letter_a" />
    <path
       style="fill:#ffffff"
       inkscape:connector-curvature="0"
       d="m 1004.5962,1032.9526 2.657,-0.3657 0.2934,1.4455 c 1.4964,-1.0968 2.6868,-1.6793 4.1833,-1.6793 2.5082,0 3.8049,1.3307 3.8049,3.9666 l 0,8.4855 -3.2098,0 0,-7.9287 c 0,-1.4922 -0.3868,-2.1638 -1.5474,-2.1638 -0.9566,0 -1.9131,0.4335 -3.0057,1.3518 l 0,8.7407 -3.1757,0 z"
       id="letter_n" />
    <path
       style="fill:#ffffff"
       inkscape:connector-curvature="0"
       d="m 1023.3857,1042.1967 c 2.4318,-0.017 2.6401,-2.4955 2.6401,-4.1068 0,-1.9132 -0.9311,-3.4563 -2.6613,-3.4563 -1.1522,0 -2.4403,0.8417 -2.4403,3.5881 0,1.5007 0.1063,3.9963 2.4615,3.975 m 5.7223,-9.6122 0,11.5423 c 0,2.0321 -0.1616,5.3948 -5.9646,5.4247 -2.3978,0.018 -4.6212,-0.9438 -5.0633,-3.0355 l 3.1629,-0.51 c 0.1319,0.5993 0.5017,1.1945 2.2957,1.1945 1.6623,0 2.4616,-0.7951 2.4616,-2.6996 l 0,-1.4199 -0.043,-0.043 c -0.5101,0.9141 -1.2839,1.7771 -3.146,1.7771 -2.8441,0 -5.0803,-1.9726 -5.0803,-6.0922 0,-4.077 2.3084,-6.36 4.8975,-6.3642 2.436,0 3.333,1.1054 3.5456,1.6878 l -0.043,0 0.2678,-1.4583 2.7081,0 z"
       id="letter_g" />
    <path
       style="fill:#ffffff"
       inkscape:connector-curvature="0"
       d="m 1036.7769,1045.0386 c -3.5922,0 -5.7349,-2.3127 -5.7349,-6.3217 0,-4.0559 2.1682,-6.3643 5.6839,-6.3643 3.5159,0 5.6074,2.2405 5.6074,6.2027 0,0.2126 -0.026,0.4208 -0.026,0.6292 l -8.1157,0 c 0.02,2.3127 0.9821,3.4775 2.8697,3.4775 1.2116,0 2.0151,-0.4888 2.7674,-1.5602 l 2.347,1.301 c -1.0333,1.7303 -2.8953,2.6358 -5.3993,2.6358 m 2.4062,-7.933 c 0,-1.6282 -0.9353,-2.5891 -2.4572,-2.5891 -1.4497,0 -2.3552,0.9396 -2.4827,2.5891 z"
       id="letter_e" />
    <path
       style="fill:#ffffff"
       inkscape:connector-curvature="0"
       d="m 1047.8271,1028.0029 -1.1819,3.0567 -1.2031,-3.0567 -1.0288,0 0,4.0302 0.6675,0 0,-3.3628 0.018,0 1.3222,3.3628 0.425,0 1.3137,-3.3628 0.02,0 0,3.3628 0.6633,0 0,-4.0302 -1.0161,0 z m -7.4185,0 0,0.5356 1.2585,0 0,3.4946 0.6673,0 0,-3.4946 1.2626,0 0,-0.5356 z"
       id="letter_TM" />
    <g
       id="g4259"
       transform="matrix(1.4691039,0,0,1.4691039,-287.93357,638.378)">
      <g
         id="g4143">
        <g
           id="g4145">
          <line
             id="line4147"
             y2="280.86499"
             x2="359.91199"
             y1="221.53101"
             x1="359.91199"
             style="fill:none" />
          <rect
             id="rect4149"
             height="59.334"
             width="1.163"
             y="221.53101"
             x="359.33099"
             style="fill:#5f6062" />
        </g>
      </g>
      <g
         id="g4151">
        <rect
           id="rect4153"
           height="59.321999"
           width="15.521"
           y="221.558"
           x="195.992"
           style="fill:#ee3524" />
        <polygon
           id="polygon4155"
           points="215.772,280.881 215.772,221.558 233.131,221.558 243.147,258.115 243.313,258.115 243.313,221.558 257.834,221.558 257.834,280.881 240.809,280.881 230.463,244.243 230.296,244.243 230.296,280.881 "
           style="fill:#ee3524" />
        <path
           id="path4157"
           d="m 285.883,237.26 c 0,-1.771 -0.368,-3.282 -1.09,-4.525 -0.726,-1.251 -1.838,-1.871 -3.335,-1.871 -1.672,0 -2.897,0.539 -3.673,1.621 -0.783,1.079 -1.17,2.281 -1.17,3.616 0,1.936 0.627,3.476 1.878,4.609 1.252,1.136 2.822,2.117 4.712,2.947 1.895,0.831 3.924,1.676 6.097,2.535 2.169,0.861 4.201,1.98 6.094,3.367 1.89,1.385 3.462,3.198 4.713,5.439 1.254,2.244 1.879,5.166 1.879,8.768 0,6.314 -1.808,10.9 -5.424,13.75 -3.619,2.859 -8.85,4.279 -15.693,4.279 -3.228,0 -6.078,-0.266 -8.558,-0.787 -2.472,-0.528 -4.562,-1.441 -6.257,-2.745 -1.697,-1.298 -2.993,-3.003 -3.879,-5.112 -0.89,-2.104 -1.333,-4.707 -1.333,-7.807 l 0,-2.082 15.02,0 0,1.418 c 0,2.551 0.473,4.334 1.418,5.358 0.948,1.028 2.17,1.542 3.673,1.542 1.616,0 2.848,-0.559 3.717,-1.664 0.86,-1.107 1.294,-2.461 1.294,-4.074 0,-1.933 -0.604,-3.475 -1.799,-4.606 -1.196,-1.136 -2.698,-2.106 -4.503,-2.911 -1.811,-0.8 -3.771,-1.621 -5.883,-2.452 -2.12,-0.831 -4.082,-1.909 -5.891,-3.239 -1.808,-1.332 -3.31,-3.073 -4.505,-5.238 -1.199,-2.154 -1.795,-4.984 -1.795,-8.471 0,-6.036 1.614,-10.636 4.844,-13.794 3.226,-3.156 8.122,-4.738 14.688,-4.738 6.786,0 11.696,1.456 14.73,4.365 3.033,2.907 4.551,7.549 4.551,13.918 l -14.521,0 10e-4,-1.416 0,0 z"
           inkscape:connector-curvature="0"
           style="fill:#ee3524" />
        <path
           id="path4159"
           d="m 334.289,221.556 14.521,59.324 -16.521,0 -1.59,-10.382 -12.353,0 -1.587,10.382 -16.274,0 14.274,-59.324 19.53,0 z m -9.849,12.133 -4.257,25.171 8.682,0 -4.265,-25.171 -0.16,0 0,0 z"
           inkscape:connector-curvature="0"
           style="fill:#ee3524" />
      </g>
      <polygon
         id="polygon4161"
         points="348.814,221.53 348.814,266.078 338.299,221.53 "
         style="fill:#5f6062" />
      <g
         id="g4163">
        <g
           id="g4165">
          <path
             id="path4167"
             d="m 371.08,221.534 1.289,0 0,10.463 -1.289,0 0,-10.463 z"
             inkscape:connector-curvature="0"
             style="fill:#5f6062" />
          <path
             id="path4169"
             d="m 374.08,221.534 1.671,0 3.459,8.734 0.028,0 0,-8.734 1.29,0 0,10.463 -1.773,0 -3.355,-8.47 -0.03,0 0,8.47 -1.288,0 -0.002,-10.463 0,0 z"
             inkscape:connector-curvature="0"
             style="fill:#5f6062" />
          <path
             id="path4171"
             d="m 386.707,224.245 c 0,-1.099 -0.396,-1.861 -1.626,-1.861 -1.085,0 -1.73,0.586 -1.73,1.7 0,2.946 4.938,1.187 4.938,5.012 0,2.418 -1.773,3.107 -3.254,3.107 -2.446,0 -3.165,-1.26 -3.165,-3.488 l 1.289,0 c 0,1.173 0.074,2.433 1.965,2.433 1.026,0 1.817,-0.733 1.817,-1.847 0,-2.96 -4.938,-1.246 -4.938,-5.086 0,-0.966 0.41,-2.886 3.063,-2.886 1.992,0 2.899,0.997 2.93,2.917 l -1.289,-0.001 0,0 z"
             inkscape:connector-curvature="0"
             style="fill:#5f6062" />
          <path
             id="path4173"
             d="m 392.83,231.997 -1.289,0 0,-9.32 -2.624,0 0,-1.143 6.551,0 0,1.143 -2.638,0 0,9.32 z"
             inkscape:connector-curvature="0"
             style="fill:#5f6062" />
          <path
             id="path4175"
             d="m 396.566,221.534 1.289,0 0,10.463 -1.289,0 0,-10.463 z"
             inkscape:connector-curvature="0"
             style="fill:#5f6062" />
          <path
             id="path4177"
             d="m 402.852,231.997 -1.289,0 0,-9.32 -2.623,0 0,-1.143 6.55,0 0,1.143 -2.638,0 0,9.32 z"
             inkscape:connector-curvature="0"
             style="fill:#5f6062" />
          <path
             id="path4179"
             d="m 406.533,221.534 1.29,0 0,7.357 c 0,1.539 0.497,2.257 1.773,2.257 1.378,0 1.788,-0.792 1.788,-2.257 l 0,-7.357 1.29,0 0,7.357 c 0,2.007 -1.026,3.312 -3.078,3.312 -2.096,0 -3.063,-1.157 -3.063,-3.312 l 0,-7.357 z"
             inkscape:connector-curvature="0"
             style="fill:#5f6062" />
          <path
             id="path4181"
             d="m 417.631,231.997 -1.289,0 0,-9.32 -2.624,0 0,-1.143 6.55,0 0,1.143 -2.637,0 0,9.32 z"
             inkscape:connector-curvature="0"
             style="fill:#5f6062" />
          <path
             id="path4183"
             d="m 424.755,221.534 1.671,0 3.458,8.734 0.029,0 0,-8.734 1.289,0 0,10.463 -1.773,0 -3.354,-8.47 -0.03,0 0,8.47 -1.289,0 0,-10.463 z"
             inkscape:connector-curvature="0"
             style="fill:#5f6062" />
          <path
             id="path4185"
             d="m 435.216,221.534 1.729,0 2.814,10.463 -1.348,0 -0.747,-2.872 -3.343,0 -0.776,2.872 -1.348,0 3.019,-10.463 z m -0.63,6.536 2.813,0 -1.333,-5.056 -0.03,0 -1.45,5.056 z"
             inkscape:connector-curvature="0"
             style="fill:#5f6062" />
          <path
             id="path4187"
             d="m 443.025,231.997 -1.289,0 0,-9.32 -2.624,0 0,-1.143 6.551,0 0,1.143 -2.638,0 0,9.32 z"
             inkscape:connector-curvature="0"
             style="fill:#5f6062" />
          <path
             id="path4189"
             d="m 446.761,221.534 1.289,0 0,10.463 -1.289,0 0,-10.463 z"
             inkscape:connector-curvature="0"
             style="fill:#5f6062" />
          <path
             id="path4191"
             d="m 456.317,226.765 c 0,2.638 -0.483,5.437 -3.37,5.437 -2.887,0 -3.371,-2.799 -3.371,-5.437 0,-2.638 0.484,-5.437 3.371,-5.437 2.887,0 3.37,2.799 3.37,5.437 z m -5.392,0 c 0,2.418 0.234,4.382 2.022,4.382 1.787,0 2.022,-1.964 2.022,-4.382 0,-2.417 -0.235,-4.382 -2.022,-4.382 -1.788,10e-4 -2.022,1.964 -2.022,4.382 z"
             inkscape:connector-curvature="0"
             style="fill:#5f6062" />
          <path
             id="path4193"
             d="m 457.845,221.534 1.67,0 3.46,8.734 0.029,0 0,-8.734 1.29,0 0,10.463 -1.773,0 -3.357,-8.47 -0.029,0 0,8.47 -1.289,0 0,-10.463 -10e-4,0 z"
             inkscape:connector-curvature="0"
             style="fill:#5f6062" />
          <path
             id="path4195"
             d="m 468.306,221.534 1.729,0 2.813,10.463 -1.348,0 -0.748,-2.872 -3.341,0 -0.776,2.872 -1.349,0 3.02,-10.463 z m -0.629,6.536 2.814,0 -1.335,-5.056 -0.029,0 -1.45,5.056 z"
             inkscape:connector-curvature="0"
             style="fill:#5f6062" />
          <path
             id="path4197"
             d="m 473.836,221.534 1.289,0 0,9.32 4.25,0 0,1.143 -5.539,0 0,-10.463 z"
             inkscape:connector-curvature="0"
             style="fill:#5f6062" />
          <path
             id="path4199"
             d="m 371.212,237.82 2.8,0 c 3.252,0 3.663,2.345 3.663,5.232 0,2.638 -0.659,5.231 -3.532,5.231 l -2.931,0 0,-10.463 0,0 z m 1.29,9.409 1.348,0 c 2.228,0 2.478,-2.287 2.478,-4.162 0,-2.023 -0.133,-4.191 -2.478,-4.191 l -1.348,0 0,8.353 z"
             inkscape:connector-curvature="0"
             style="fill:#5f6062" />
          <path
             id="path4201"
             d="m 379.182,237.82 5.407,0 0,1.143 -4.117,0 0,3.283 3.884,0 0,1.143 -3.884,0 0,3.752 4.293,0 0,1.143 -5.583,0 0,-10.464 z"
             inkscape:connector-curvature="0"
             style="fill:#5f6062" />
          <path
             id="path4203"
             d="m 390.465,240.531 c 0,-1.1 -0.396,-1.861 -1.627,-1.861 -1.084,0 -1.729,0.586 -1.729,1.7 0,2.945 4.938,1.187 4.938,5.012 0,2.418 -1.773,3.107 -3.252,3.107 -2.447,0 -3.166,-1.26 -3.166,-3.488 l 1.29,0 c 0,1.173 0.072,2.433 1.963,2.433 1.026,0 1.817,-0.732 1.817,-1.846 0,-2.96 -4.938,-1.247 -4.938,-5.086 0,-0.966 0.41,-2.887 3.063,-2.887 1.992,0 2.901,0.997 2.931,2.917 l -1.29,-0.001 0,0 z"
             inkscape:connector-curvature="0"
             style="fill:#5f6062" />
          <path
             id="path4205"
             d="m 401.311,240.531 c 0,-1.1 -0.396,-1.861 -1.627,-1.861 -1.084,0 -1.729,0.586 -1.729,1.7 0,2.945 4.938,1.187 4.938,5.012 0,2.418 -1.771,3.107 -3.252,3.107 -2.448,0 -3.167,-1.26 -3.167,-3.488 l 1.29,0 c 0,1.173 0.074,2.433 1.964,2.433 1.026,0 1.816,-0.732 1.816,-1.846 0,-2.96 -4.938,-1.247 -4.938,-5.086 0,-0.966 0.411,-2.887 3.063,-2.887 1.993,0 2.902,0.997 2.932,2.917 l -1.29,-0.001 0,0 z"
             inkscape:connector-curvature="0"
             style="fill:#5f6062" />
          <path
             id="path4207"
             d="m 410.592,244.694 c -0.118,1.978 -0.895,3.795 -3.181,3.795 -2.976,0 -3.37,-2.799 -3.37,-5.437 0,-2.638 0.483,-5.438 3.37,-5.438 2.14,0 3.033,1.202 3.093,3.254 l -1.35,0 c -0.028,-1.187 -0.409,-2.198 -1.743,-2.198 -1.788,0 -2.022,1.963 -2.022,4.382 0,2.418 0.234,4.382 2.022,4.382 1.568,0 1.789,-1.466 1.833,-2.74 l 1.348,0 0,0 z"
             inkscape:connector-curvature="0"
             style="fill:#5f6062" />
          <path
             id="path4209"
             d="m 411.825,237.82 1.289,0 0,10.463 -1.289,0 0,-10.463 z"
             inkscape:connector-curvature="0"
             style="fill:#5f6062" />
          <path
             id="path4211"
             d="m 414.826,237.82 5.408,0 0,1.143 -4.119,0 0,3.283 3.884,0 0,1.143 -3.884,0 0,3.752 4.294,0 0,1.143 -5.583,0 0,-10.464 z"
             inkscape:connector-curvature="0"
             style="fill:#5f6062" />
          <path
             id="path4213"
             d="m 421.622,237.82 1.671,0 3.459,8.735 0.029,0 0,-8.735 1.289,0 0,10.463 -1.773,0 -3.356,-8.471 -0.028,0 0,8.471 -1.29,0 0,-10.463 -10e-4,0 z"
             inkscape:connector-curvature="0"
             style="fill:#5f6062" />
          <path
             id="path4215"
             d="m 436.15,244.694 c -0.117,1.978 -0.895,3.795 -3.181,3.795 -2.976,0 -3.37,-2.799 -3.37,-5.437 0,-2.638 0.483,-5.438 3.37,-5.438 2.14,0 3.034,1.202 3.093,3.254 l -1.348,0 c -0.029,-1.187 -0.412,-2.198 -1.744,-2.198 -1.788,0 -2.023,1.963 -2.023,4.382 0,2.418 0.235,4.382 2.023,4.382 1.567,0 1.787,-1.466 1.831,-2.74 l 1.349,0 0,0 z"
             inkscape:connector-curvature="0"
             style="fill:#5f6062" />
          <path
             id="path4217"
             d="m 437.391,237.82 5.407,0 0,1.143 -4.118,0 0,3.283 3.884,0 0,1.143 -3.884,0 0,3.752 4.294,0 0,1.143 -5.583,0 0,-10.464 z"
             inkscape:connector-curvature="0"
             style="fill:#5f6062" />
          <path
             id="path4219"
             d="m 448.674,240.531 c 0,-1.1 -0.396,-1.861 -1.626,-1.861 -1.085,0 -1.73,0.586 -1.73,1.7 0,2.945 4.939,1.187 4.939,5.012 0,2.418 -1.773,3.107 -3.254,3.107 -2.447,0 -3.165,-1.26 -3.165,-3.488 l 1.289,0 c 0,1.173 0.073,2.433 1.964,2.433 1.025,0 1.817,-0.732 1.817,-1.846 0,-2.96 -4.939,-1.247 -4.939,-5.086 0,-0.966 0.411,-2.887 3.063,-2.887 1.993,0 2.902,0.997 2.931,2.917 l -1.289,-0.001 0,0 z"
             inkscape:connector-curvature="0"
             style="fill:#5f6062" />
          <path
             id="path4221"
             d="m 373.131,254.106 1.729,0 2.814,10.465 -1.348,0 -0.748,-2.873 -3.341,0 -0.777,2.873 -1.348,0 3.019,-10.465 z m -0.629,6.537 2.813,0 -1.333,-5.057 -0.029,0 -1.451,5.057 z"
             inkscape:connector-curvature="0"
             style="fill:#5f6062" />
          <path
             id="path4223"
             d="m 378.661,254.106 2.667,0 c 0.909,0 3.238,0 3.238,3.005 0,1.949 -1.245,3.034 -3.019,3.034 l -1.598,0 0,4.426 -1.289,0 0,-10.465 10e-4,0 z m 1.29,4.982 1.539,0 c 0.938,0 1.729,-0.645 1.729,-2.036 0,-1.144 -0.541,-1.89 -1.816,-1.89 l -1.451,0 0,3.926 -10e-4,0 z"
             inkscape:connector-curvature="0"
             style="fill:#5f6062" />
          <path
             id="path4225"
             d="m 385.752,254.106 2.667,0 c 0.909,0 3.238,0 3.238,3.005 0,1.949 -1.245,3.034 -3.019,3.034 l -1.597,0 0,4.426 -1.29,0 0,-10.465 0.001,0 z m 1.29,4.982 1.539,0 c 0.938,0 1.729,-0.645 1.729,-2.036 0,-1.144 -0.542,-1.89 -1.816,-1.89 l -1.451,0 0,3.926 -0.001,0 z"
             inkscape:connector-curvature="0"
             style="fill:#5f6062" />
          <path
             id="path4227"
             d="m 392.844,254.106 1.289,0 0,9.32 4.251,0 0,1.145 -5.54,0 0,-10.465 z"
             inkscape:connector-curvature="0"
             style="fill:#5f6062" />
          <path
             id="path4229"
             d="m 399.481,254.106 1.29,0 0,10.465 -1.29,0 0,-10.465 z"
             inkscape:connector-curvature="0"
             style="fill:#5f6062" />
          <path
             id="path4231"
             d="m 407.469,264.247 c -0.455,0.338 -1.055,0.528 -1.803,0.528 -2.887,0 -3.37,-2.8 -3.37,-5.438 0,-2.638 0.483,-5.438 3.37,-5.438 2.887,0 3.371,2.8 3.371,5.438 0,1.51 -0.162,3.078 -0.851,4.133 l 1.056,0.967 -0.718,0.763 -1.055,-0.953 z m -1.862,-1.685 0.719,-0.792 0.967,0.88 c 0.321,-0.79 0.396,-1.978 0.396,-3.312 0,-2.418 -0.234,-4.383 -2.022,-4.383 -1.787,0 -2.022,1.965 -2.022,4.383 0,2.418 0.235,4.383 2.022,4.383 0.381,0 0.704,-0.089 0.953,-0.25 l -1.013,-0.909 z"
             inkscape:connector-curvature="0"
             style="fill:#5f6062" />
          <path
             id="path4233"
             d="m 410.47,254.106 1.289,0 0,7.357 c 0,1.539 0.498,2.258 1.773,2.258 1.378,0 1.787,-0.792 1.787,-2.258 l 0,-7.357 1.29,0 0,7.357 c 0,2.008 -1.026,3.313 -3.077,3.313 -2.096,0 -3.063,-1.158 -3.063,-3.313 l 0,-7.357 0.001,0 z"
             inkscape:connector-curvature="0"
             style="fill:#5f6062" />
          <path
             id="path4235"
             d="m 418.269,254.106 5.407,0 0,1.144 -4.117,0 0,3.282 3.883,0 0,1.144 -3.883,0 0,3.752 4.294,0 0,1.144 -5.584,0 0,-10.466 z m 3.02,-2.653 1.436,0 -1.583,2.082 -0.879,0 1.026,-2.082 z"
             inkscape:connector-curvature="0"
             style="fill:#5f6062" />
          <path
             id="path4237"
             d="m 425.067,254.106 5.407,0 0,1.144 -4.118,0 0,3.282 3.884,0 0,1.144 -3.884,0 0,3.752 4.293,0 0,1.144 -5.582,0 0,-10.466 z"
             inkscape:connector-curvature="0"
             style="fill:#5f6062" />
          <path
             id="path4239"
             d="m 436.349,256.818 c 0,-1.099 -0.396,-1.862 -1.628,-1.862 -1.084,0 -1.729,0.588 -1.729,1.701 0,2.945 4.938,1.188 4.938,5.012 0,2.418 -1.773,3.107 -3.253,3.107 -2.448,0 -3.166,-1.262 -3.166,-3.488 l 1.29,0 c 0,1.173 0.073,2.434 1.964,2.434 1.025,0 1.816,-0.733 1.816,-1.847 0,-2.96 -4.938,-1.246 -4.938,-5.087 0,-0.966 0.41,-2.886 3.063,-2.886 1.993,0 2.901,0.997 2.931,2.916 l -1.288,0 0,0 z"
             inkscape:connector-curvature="0"
             style="fill:#5f6062" />
          <path
             id="path4241"
             d="m 370.992,270.393 4.133,0 c 2.096,0 2.814,1.289 2.814,2.725 0,1.524 -0.616,2.273 -1.759,2.551 l 0,0.029 c 1.567,0.221 1.656,1.201 1.686,2.607 0.043,2.068 0.117,2.272 0.469,2.42 l 0,0.131 -2.652,0 c -0.19,-0.353 -0.264,-0.938 -0.264,-2.125 0,-1.816 -0.249,-2.198 -1.026,-2.198 l -0.938,0 0,4.323 -2.461,0 -0.002,-10.463 0,0 z m 2.462,4.41 0.762,0 c 0.997,0 1.261,-0.746 1.261,-1.362 0,-0.791 -0.293,-1.319 -1.274,-1.319 l -0.748,0 0,2.681 -10e-4,0 z"
             inkscape:connector-curvature="0"
             style="fill:#5f6062" />
          <path
             id="path4243"
             d="m 379.753,270.393 6.053,0 0,1.993 -3.591,0 0,2.096 3.37,0 0,1.993 -3.37,0 0,2.389 3.752,0 0,1.992 -6.214,0 0,-10.463 z"
             inkscape:connector-curvature="0"
             style="fill:#5f6062" />
          <path
             id="path4245"
             d="m 387.476,270.393 2.828,0 2.021,6.801 0.03,0 0,-6.801 2.286,0 0,10.463 -2.784,0 -2.154,-7.21 -0.029,0 0,7.21 -2.198,0 0,-10.463 0,0 z"
             inkscape:connector-curvature="0"
             style="fill:#5f6062" />
          <path
             id="path4247"
             d="m 396.5,270.393 2.828,0 2.021,6.801 0.029,0 0,-6.801 2.286,0 0,10.463 -2.784,0 -2.154,-7.21 -0.029,0 0,7.21 -2.197,0 0,-10.463 z"
             inkscape:connector-curvature="0"
             style="fill:#5f6062" />
          <path
             id="path4249"
             d="m 405.522,270.393 6.053,0 0,1.993 -3.591,0 0,2.096 3.371,0 0,1.993 -3.371,0 0,2.389 3.752,0 0,1.992 -6.214,0 0,-10.463 0,0 z"
             inkscape:connector-curvature="0"
             style="fill:#5f6062" />
          <path
             id="path4251"
             d="m 415.38,277.661 0,0.366 c 0,0.791 0.22,1.393 1.068,1.393 0.864,0 1.114,-0.646 1.114,-1.246 0,-2.257 -4.498,-0.996 -4.498,-4.91 0,-1.67 0.894,-3.076 3.429,-3.076 2.462,0 3.342,1.245 3.342,2.857 l 0,0.249 -2.375,0 c 0,-0.499 -0.058,-0.864 -0.205,-1.099 -0.146,-0.25 -0.381,-0.367 -0.746,-0.367 -0.616,0 -0.982,0.367 -0.982,1.129 0,2.184 4.499,1.084 4.499,4.778 0,2.374 -1.319,3.326 -3.576,3.326 -1.788,0 -3.443,-0.542 -3.443,-2.726 l 0,-0.674 2.373,0 0,0 z"
             inkscape:connector-curvature="0"
             style="fill:#5f6062" />
        </g>
      </g>
    </g>
  </g>
</svg>
